<?xml version="1.0" encoding="UTF-8"?>
<svg width="512px" height="512px" viewBox="0 0 512 512" version="1.1" xmlns="http://www.w3.org/2000/svg" xmlns:xlink="http://www.w3.org/1999/xlink">
    <title>favicon</title>
    <g id="favicon" stroke="none" stroke-width="1" fill="none" fill-rule="evenodd">
        <g id="Group" transform="translate(70.000000, 23.000000)" fill="#000000" fill-rule="nonzero">
            <polygon id="Path" points="84.5293647 8.23136325 84.5293647 16.4627265 285.842348 16.4627265 355.561375 86.2238842 355.561375 380.059467 285.049442 449.551441 87.8992121 449.551441 16.4527842 379.22358 16.4527842 87.3856257 90.320405 14.0825733 84.5293647 8.23136325 84.5293647 16.4627265 84.5293647 8.23136325 78.7383245 2.39432081 0 80.5285176 0 386.123191 81.1595174 466 291.789137 466 372 386.959078 372 79.4092789 292.652838 0 81.1453584 0 78.7383245 2.39432081"></polygon>
            <polygon id="Path" points="116.228439 86.2180482 116.228439 94.4360964 252.030688 94.4360964 275.567857 117.944524 275.567857 348.983421 251.181481 369.578048 119.214815 369.578048 94.4462963 348.940987 94.4462963 116.558347 121.691667 92.3568312 116.228439 86.2180482 116.228439 94.4360964 116.228439 86.2180482 110.779365 80.0792652 78 109.188978 78 356.635683 113.256217 386 257.196693 386 292 356.607394 292 111.140941 258.852646 78 113.114683 78 110.779365 80.0792652"></polygon>
            <polyline id="Path" points="296 454.533592 261.240947 373 246 379.466408 280.759053 461"></polyline>
            <polyline id="Path" points="286.951829 122 366 90.4901005 360.0341 75 281 106.509899"></polyline>
            <polygon id="Path" points="8 283 89.1745779 283 184.66741 213.277516 281.705479 283 364 283 364 266.617121 287.021663 266.617121 184.596528 193 83.7875119 266.617121 8 266.617121"></polygon>
            <polyline id="Path" points="89 104.461389 10.6075523 76 5 91.5243942 83.4066082 120"></polyline>
            <polyline id="Path" points="108.521219 374 76 454.811237 91.4644351 461 124 380.188763"></polyline>
        </g>
    </g>
</svg>